<svg xmlns="http://www.w3.org/2000/svg" width="1200" height="720" viewBox="0 0 1200 720" fill="none" role="img" aria-labelledby="title desc">
  <title>ARTICLE 10</title>
  <desc>Weather data, project pressure, and results</desc>
  <defs>
    <linearGradient id="bg" x1="0" y1="0" x2="1200" y2="720" gradientUnits="userSpaceOnUse">
      <stop offset="0" stop-color="#07101C"/>
      <stop offset="0.55" stop-color="#0D1A2F"/>
      <stop offset="1" stop-color="#101E36"/>
    </linearGradient>
    <linearGradient id="accent" x1="240" y1="120" x2="1040" y2="620" gradientUnits="userSpaceOnUse">
      <stop offset="0" stop-color="#89F0C7"/>
      <stop offset="1" stop-color="#69D2E7"/>
    </linearGradient>
    <linearGradient id="accentSoft" x1="420" y1="180" x2="980" y2="580" gradientUnits="userSpaceOnUse">
      <stop offset="0" stop-color="#69D2E7" stop-opacity="0.95"/>
      <stop offset="1" stop-color="#FFD166" stop-opacity="0.88"/>
    </linearGradient>
    <radialGradient id="glowA" cx="0" cy="0" r="1" gradientUnits="userSpaceOnUse" gradientTransform="translate(940 170) rotate(90) scale(260)">
      <stop stop-color="#89F0C7" stop-opacity="0.26"/>
      <stop offset="1" stop-color="#89F0C7" stop-opacity="0"/>
    </radialGradient>
    <radialGradient id="glowB" cx="0" cy="0" r="1" gradientUnits="userSpaceOnUse" gradientTransform="translate(760 540) rotate(90) scale(300)">
      <stop stop-color="#FFD166" stop-opacity="0.18"/>
      <stop offset="1" stop-color="#FFD166" stop-opacity="0"/>
    </radialGradient>
    <pattern id="grid" width="42" height="42" patternUnits="userSpaceOnUse">
      <path d="M42 0H0V42" stroke="rgba(255,255,255,0.06)" stroke-width="1"/>
    </pattern>
    <filter id="shadow" x="-20%" y="-20%" width="140%" height="140%">
      <feDropShadow dx="0" dy="20" stdDeviation="20" flood-color="#000000" flood-opacity="0.28"/>
    </filter>
  </defs>

  <rect width="1200" height="720" rx="42" fill="url(#bg)"/>
  <rect width="1200" height="720" rx="42" fill="url(#grid)" opacity="0.32"/>
  <circle cx="940" cy="170" r="260" fill="url(#glowA)"/>
  <circle cx="760" cy="540" r="300" fill="url(#glowB)"/>
  <path d="M0 590C200 520 310 650 500 620C675 592 715 455 873 448C1001 442 1096 505 1200 454V720H0V590Z" fill="rgba(255,255,255,0.04)"/>

  <g filter="url(#shadow)">
    <rect x="84" y="94" width="396" height="532" rx="34" fill="rgba(8,17,31,0.56)" stroke="rgba(255,255,255,0.12)"/>
    <rect x="116" y="126" width="156" height="36" rx="18" fill="rgba(255,255,255,0.08)"/>
    <text x="144" y="150" fill="#EAF3FF" font-family="Segoe UI, Arial, sans-serif" font-size="16" font-weight="700" letter-spacing="3">ARTICLE 10</text>
    <text x="116" y="248" fill="#F4F8FF" font-family="Segoe UI, Arial, sans-serif" font-size="48" font-weight="800">Projects and</text>
    <text x="116" y="308" fill="url(#accent)" font-family="Segoe UI, Arial, sans-serif" font-size="48" font-weight="800">Top GPA</text>
    <text x="116" y="384" fill="#A7B8D7" font-family="Segoe UI, Arial, sans-serif" font-size="22">Weather data, project pressure, and results</text>
    <rect x="116" y="446" width="290" height="2" fill="rgba(255,255,255,0.12)"/>
    <circle cx="136" cy="492" r="8" fill="#89F0C7"/>
    <text x="160" y="500" fill="#DCE8FF" font-family="Segoe UI, Arial, sans-serif" font-size="18">Computer engineering journey</text>
    <circle cx="136" cy="538" r="8" fill="#69D2E7"/>
    <text x="160" y="546" fill="#DCE8FF" font-family="Segoe UI, Arial, sans-serif" font-size="18">Curiosity, persistence, and growth</text>
  </g>

  <g transform="translate(548 118)">
  <rect x="0" y="0" width="578" height="486" rx="40" fill="rgba(255,255,255,0.04)" stroke="rgba(255,255,255,0.14)"/>
  <rect x="92" y="116" width="286" height="196" rx="28" fill="rgba(8,17,31,0.50)" stroke="rgba(255,255,255,0.12)"/>
  <path d="M134 232C168 192 222 188 260 220C274 192 302 174 336 184C374 194 396 228 396 262C396 288 374 308 344 308H188C154 308 128 284 128 252C128 246 130 238 134 232Z" fill="rgba(255,255,255,0.08)" stroke="url(#accent)" stroke-width="2"/>
  <path d="M184 324L168 354M234 324L218 354M286 324L270 354" stroke="#69D2E7" stroke-width="8" stroke-linecap="round"/>
  <rect x="418" y="122" width="92" height="220" rx="22" fill="rgba(255,255,255,0.07)"/>
  <path d="M454 166V252" stroke="#EAF4FF" stroke-width="16" stroke-linecap="round" opacity="0.78"/>
  <path d="M454 252L430 226M454 252L478 226" stroke="#EAF4FF" stroke-width="12" stroke-linecap="round" stroke-linejoin="round" opacity="0.78"/>
  <path d="M146 438H456" stroke="rgba(255,255,255,0.14)" stroke-width="2"/>
  <path d="M206 438V396L244 370L282 396V438" fill="url(#accentSoft)"/>
  <rect x="190" y="438" width="108" height="22" rx="11" fill="rgba(255,255,255,0.14)"/>
  <path d="M244 344L256 368L282 370L262 388L268 414L244 400L220 414L226 388L206 370L232 368Z" fill="#FFD166"/>
</g>
</svg>
