<svg xmlns="http://www.w3.org/2000/svg" width="1200" height="720" viewBox="0 0 1200 720" fill="none" role="img" aria-labelledby="title desc">
  <title>ARTICLE 14</title>
  <desc>Ramadan, disruption, and remote learning</desc>
  <defs>
    <linearGradient id="bg" x1="0" y1="0" x2="1200" y2="720" gradientUnits="userSpaceOnUse">
      <stop offset="0" stop-color="#07101C"/>
      <stop offset="0.55" stop-color="#0D1A2F"/>
      <stop offset="1" stop-color="#101E36"/>
    </linearGradient>
    <linearGradient id="accent" x1="240" y1="120" x2="1040" y2="620" gradientUnits="userSpaceOnUse">
      <stop offset="0" stop-color="#69D2E7"/>
      <stop offset="1" stop-color="#FFD166"/>
    </linearGradient>
    <linearGradient id="accentSoft" x1="420" y1="180" x2="980" y2="580" gradientUnits="userSpaceOnUse">
      <stop offset="0" stop-color="#FFD166" stop-opacity="0.95"/>
      <stop offset="1" stop-color="#89F0C7" stop-opacity="0.88"/>
    </linearGradient>
    <radialGradient id="glowA" cx="0" cy="0" r="1" gradientUnits="userSpaceOnUse" gradientTransform="translate(940 170) rotate(90) scale(260)">
      <stop stop-color="#69D2E7" stop-opacity="0.26"/>
      <stop offset="1" stop-color="#69D2E7" stop-opacity="0"/>
    </radialGradient>
    <radialGradient id="glowB" cx="0" cy="0" r="1" gradientUnits="userSpaceOnUse" gradientTransform="translate(760 540) rotate(90) scale(300)">
      <stop stop-color="#89F0C7" stop-opacity="0.18"/>
      <stop offset="1" stop-color="#89F0C7" stop-opacity="0"/>
    </radialGradient>
    <pattern id="grid" width="42" height="42" patternUnits="userSpaceOnUse">
      <path d="M42 0H0V42" stroke="rgba(255,255,255,0.06)" stroke-width="1"/>
    </pattern>
    <filter id="shadow" x="-20%" y="-20%" width="140%" height="140%">
      <feDropShadow dx="0" dy="20" stdDeviation="20" flood-color="#000000" flood-opacity="0.28"/>
    </filter>
  </defs>

  <rect width="1200" height="720" rx="42" fill="url(#bg)"/>
  <rect width="1200" height="720" rx="42" fill="url(#grid)" opacity="0.32"/>
  <circle cx="940" cy="170" r="260" fill="url(#glowA)"/>
  <circle cx="760" cy="540" r="300" fill="url(#glowB)"/>
  <path d="M0 590C200 520 310 650 500 620C675 592 715 455 873 448C1001 442 1096 505 1200 454V720H0V590Z" fill="rgba(255,255,255,0.04)"/>

  <g filter="url(#shadow)">
    <rect x="84" y="94" width="396" height="532" rx="34" fill="rgba(8,17,31,0.56)" stroke="rgba(255,255,255,0.12)"/>
    <rect x="116" y="126" width="156" height="36" rx="18" fill="rgba(255,255,255,0.08)"/>
    <text x="144" y="150" fill="#EAF3FF" font-family="Segoe UI, Arial, sans-serif" font-size="16" font-weight="700" letter-spacing="3">ARTICLE 14</text>
    <text x="116" y="248" fill="#F4F8FF" font-family="Segoe UI, Arial, sans-serif" font-size="48" font-weight="800">Shift to</text>
    <text x="116" y="308" fill="url(#accent)" font-family="Segoe UI, Arial, sans-serif" font-size="48" font-weight="800">Online Classes</text>
    <text x="116" y="384" fill="#A7B8D7" font-family="Segoe UI, Arial, sans-serif" font-size="22">Ramadan, disruption, and remote learning</text>
    <rect x="116" y="446" width="290" height="2" fill="rgba(255,255,255,0.12)"/>
    <circle cx="136" cy="492" r="8" fill="#69D2E7"/>
    <text x="160" y="500" fill="#DCE8FF" font-family="Segoe UI, Arial, sans-serif" font-size="18">Computer engineering journey</text>
    <circle cx="136" cy="538" r="8" fill="#FFD166"/>
    <text x="160" y="546" fill="#DCE8FF" font-family="Segoe UI, Arial, sans-serif" font-size="18">Curiosity, persistence, and growth</text>
  </g>

  <g transform="translate(548 116)">
  <rect x="0" y="0" width="578" height="488" rx="40" fill="rgba(255,255,255,0.04)" stroke="rgba(255,255,255,0.14)"/>
  <rect x="102" y="158" width="332" height="216" rx="26" fill="rgba(8,17,31,0.52)" stroke="url(#accent)" stroke-width="2"/>
  <rect x="138" y="198" width="74" height="54" rx="14" fill="rgba(255,255,255,0.10)"/>
  <rect x="230" y="198" width="74" height="54" rx="14" fill="rgba(255,255,255,0.08)"/>
  <rect x="322" y="198" width="74" height="54" rx="14" fill="rgba(255,255,255,0.10)"/>
  <rect x="138" y="272" width="258" height="58" rx="16" fill="rgba(255,255,255,0.08)"/>
  <path d="M154 408H382" stroke="#EAF4FF" stroke-width="16" stroke-linecap="round" opacity="0.74"/>
  <path d="M268 408V452" stroke="#EAF4FF" stroke-width="12" stroke-linecap="round" opacity="0.74"/>
  <path d="M450 136C468 112 510 116 522 148C532 176 514 202 486 206C456 210 430 184 436 154C442 126 470 112 492 120C470 122 454 134 450 136Z" fill="url(#accentSoft)"/>
  <circle cx="476" cy="360" r="70" fill="rgba(255,255,255,0.05)" stroke="rgba(255,255,255,0.10)"/>
  <path d="M430 360H522M476 314C448 340 448 380 476 406M476 314C504 340 504 380 476 406" stroke="#69D2E7" stroke-width="8" stroke-linecap="round" opacity="0.84"/>
</g>
</svg>
