<svg xmlns="http://www.w3.org/2000/svg" width="1200" height="720" viewBox="0 0 1200 720" fill="none" role="img" aria-labelledby="title desc">
  <title>ARTICLE 15</title>
  <desc>Online learning, digital systems, and adapting to remote study</desc>
  <defs>
    <linearGradient id="bg" x1="0" y1="0" x2="1200" y2="720" gradientUnits="userSpaceOnUse">
      <stop offset="0" stop-color="#07101C"/>
      <stop offset="0.55" stop-color="#0D1A2F"/>
      <stop offset="1" stop-color="#101E36"/>
    </linearGradient>
    <linearGradient id="accent" x1="240" y1="120" x2="1040" y2="620" gradientUnits="userSpaceOnUse">
      <stop offset="0" stop-color="#69D2E7"/>
      <stop offset="0.5" stop-color="#89F0C7"/>
      <stop offset="1" stop-color="#FFD166"/>
    </linearGradient>
    <linearGradient id="accentSoft" x1="480" y1="180" x2="1000" y2="590" gradientUnits="userSpaceOnUse">
      <stop offset="0" stop-color="#89F0C7" stop-opacity="0.95"/>
      <stop offset="1" stop-color="#69D2E7" stop-opacity="0.88"/>
    </linearGradient>
    <radialGradient id="glowA" cx="0" cy="0" r="1" gradientUnits="userSpaceOnUse" gradientTransform="translate(930 176) rotate(90) scale(250)">
      <stop stop-color="#69D2E7" stop-opacity="0.26"/>
      <stop offset="1" stop-color="#69D2E7" stop-opacity="0"/>
    </radialGradient>
    <radialGradient id="glowB" cx="0" cy="0" r="1" gradientUnits="userSpaceOnUse" gradientTransform="translate(760 550) rotate(90) scale(290)">
      <stop stop-color="#FFD166" stop-opacity="0.18"/>
      <stop offset="1" stop-color="#FFD166" stop-opacity="0"/>
    </radialGradient>
    <pattern id="grid" width="42" height="42" patternUnits="userSpaceOnUse">
      <path d="M42 0H0V42" stroke="rgba(255,255,255,0.06)" stroke-width="1"/>
    </pattern>
    <filter id="shadow" x="-20%" y="-20%" width="140%" height="140%">
      <feDropShadow dx="0" dy="20" stdDeviation="20" flood-color="#000000" flood-opacity="0.28"/>
    </filter>
  </defs>

  <rect width="1200" height="720" rx="42" fill="url(#bg)"/>
  <rect width="1200" height="720" rx="42" fill="url(#grid)" opacity="0.32"/>
  <circle cx="930" cy="176" r="250" fill="url(#glowA)"/>
  <circle cx="760" cy="550" r="290" fill="url(#glowB)"/>
  <path d="M0 588C186 526 324 646 506 620C678 595 740 456 890 448C1012 441 1100 501 1200 456V720H0V588Z" fill="rgba(255,255,255,0.04)"/>

  <g filter="url(#shadow)">
    <rect x="84" y="94" width="396" height="532" rx="34" fill="rgba(8,17,31,0.56)" stroke="rgba(255,255,255,0.12)"/>
    <rect x="116" y="126" width="156" height="36" rx="18" fill="rgba(255,255,255,0.08)"/>
    <text x="144" y="150" fill="#EAF3FF" font-family="Segoe UI, Arial, sans-serif" font-size="16" font-weight="700" letter-spacing="3">ARTICLE 15</text>
    <text x="116" y="236" fill="#F4F8FF" font-family="Segoe UI, Arial, sans-serif" font-size="46" font-weight="800">Online Learning</text>
    <text x="116" y="294" fill="url(#accent)" font-family="Segoe UI, Arial, sans-serif" font-size="46" font-weight="800">&amp; Digital Adjustments</text>
    <text x="116" y="374" fill="#A7B8D7" font-family="Segoe UI, Arial, sans-serif" font-size="22">Remote classes, digital systems, and adaptation</text>
    <rect x="116" y="446" width="290" height="2" fill="rgba(255,255,255,0.12)"/>
    <circle cx="136" cy="492" r="8" fill="#69D2E7"/>
    <text x="160" y="500" fill="#DCE8FF" font-family="Segoe UI, Arial, sans-serif" font-size="18">Online classes and independent learning</text>
    <circle cx="136" cy="538" r="8" fill="#FFD166"/>
    <text x="160" y="546" fill="#DCE8FF" font-family="Segoe UI, Arial, sans-serif" font-size="18">Assignments, platforms, and adjustment</text>
  </g>

  <g transform="translate(548 116)">
    <rect x="0" y="0" width="578" height="488" rx="40" fill="rgba(255,255,255,0.04)" stroke="rgba(255,255,255,0.14)"/>
    <rect x="82" y="122" width="356" height="236" rx="28" fill="rgba(8,17,31,0.52)" stroke="url(#accent)" stroke-width="2"/>
    <rect x="112" y="154" width="296" height="170" rx="18" fill="rgba(255,255,255,0.06)"/>
    <path d="M174 390H346" stroke="#EAF4FF" stroke-width="16" stroke-linecap="round" opacity="0.72"/>
    <path d="M260 390V434" stroke="#EAF4FF" stroke-width="12" stroke-linecap="round" opacity="0.72"/>
    <rect x="150" y="188" width="84" height="52" rx="16" fill="rgba(255,255,255,0.10)"/>
    <rect x="248" y="188" width="126" height="18" rx="9" fill="#EAF4FF" opacity="0.86"/>
    <rect x="248" y="220" width="102" height="16" rx="8" fill="#EAF4FF" opacity="0.52"/>
    <rect x="150" y="262" width="224" height="24" rx="12" fill="url(#accentSoft)"/>
    <path d="M470 168C484 144 520 138 544 152C570 168 578 202 560 226C542 250 508 256 482 240C458 226 452 192 470 168Z" fill="rgba(255,255,255,0.08)" stroke="rgba(255,255,255,0.14)"/>
    <path d="M504 120V92M504 260V288M560 176H588M420 176H448M542 138L562 118M466 214L446 234M542 214L562 234M466 138L446 118" stroke="#69D2E7" stroke-width="10" stroke-linecap="round"/>
    <path d="M486 196C496 206 512 206 522 196C532 186 532 170 522 160" stroke="#FFD166" stroke-width="10" stroke-linecap="round"/>
    <path d="M474 208C492 226 520 226 538 208C556 190 556 162 538 144" stroke="#89F0C7" stroke-width="8" stroke-linecap="round" opacity="0.9"/>
    <rect x="454" y="344" width="88" height="116" rx="20" fill="rgba(255,255,255,0.08)" stroke="rgba(255,255,255,0.12)"/>
    <rect x="472" y="370" width="52" height="12" rx="6" fill="#EAF4FF" opacity="0.84"/>
    <rect x="472" y="396" width="52" height="12" rx="6" fill="#EAF4FF" opacity="0.52"/>
    <rect x="472" y="422" width="34" height="12" rx="6" fill="url(#accent)"/>
  </g>
</svg>
