<svg xmlns="http://www.w3.org/2000/svg" width="1200" height="720" viewBox="0 0 1200 720" fill="none" role="img" aria-labelledby="title desc">
  <title>ARTICLE 03</title>
  <desc>Campus impressions, maps, and hostel life</desc>
  <defs>
    <linearGradient id="bg" x1="0" y1="0" x2="1200" y2="720" gradientUnits="userSpaceOnUse">
      <stop offset="0" stop-color="#07101C"/>
      <stop offset="0.55" stop-color="#0D1A2F"/>
      <stop offset="1" stop-color="#101E36"/>
    </linearGradient>
    <linearGradient id="accent" x1="240" y1="120" x2="1040" y2="620" gradientUnits="userSpaceOnUse">
      <stop offset="0" stop-color="#FFD166"/>
      <stop offset="1" stop-color="#69D2E7"/>
    </linearGradient>
    <linearGradient id="accentSoft" x1="420" y1="180" x2="980" y2="580" gradientUnits="userSpaceOnUse">
      <stop offset="0" stop-color="#69D2E7" stop-opacity="0.95"/>
      <stop offset="1" stop-color="#89F0C7" stop-opacity="0.88"/>
    </linearGradient>
    <radialGradient id="glowA" cx="0" cy="0" r="1" gradientUnits="userSpaceOnUse" gradientTransform="translate(940 170) rotate(90) scale(260)">
      <stop stop-color="#FFD166" stop-opacity="0.26"/>
      <stop offset="1" stop-color="#FFD166" stop-opacity="0"/>
    </radialGradient>
    <radialGradient id="glowB" cx="0" cy="0" r="1" gradientUnits="userSpaceOnUse" gradientTransform="translate(760 540) rotate(90) scale(300)">
      <stop stop-color="#89F0C7" stop-opacity="0.18"/>
      <stop offset="1" stop-color="#89F0C7" stop-opacity="0"/>
    </radialGradient>
    <pattern id="grid" width="42" height="42" patternUnits="userSpaceOnUse">
      <path d="M42 0H0V42" stroke="rgba(255,255,255,0.06)" stroke-width="1"/>
    </pattern>
    <filter id="shadow" x="-20%" y="-20%" width="140%" height="140%">
      <feDropShadow dx="0" dy="20" stdDeviation="20" flood-color="#000000" flood-opacity="0.28"/>
    </filter>
  </defs>

  <rect width="1200" height="720" rx="42" fill="url(#bg)"/>
  <rect width="1200" height="720" rx="42" fill="url(#grid)" opacity="0.32"/>
  <circle cx="940" cy="170" r="260" fill="url(#glowA)"/>
  <circle cx="760" cy="540" r="300" fill="url(#glowB)"/>
  <path d="M0 590C200 520 310 650 500 620C675 592 715 455 873 448C1001 442 1096 505 1200 454V720H0V590Z" fill="rgba(255,255,255,0.04)"/>

  <g filter="url(#shadow)">
    <rect x="84" y="94" width="396" height="532" rx="34" fill="rgba(8,17,31,0.56)" stroke="rgba(255,255,255,0.12)"/>
    <rect x="116" y="126" width="156" height="36" rx="18" fill="rgba(255,255,255,0.08)"/>
    <text x="144" y="150" fill="#EAF3FF" font-family="Segoe UI, Arial, sans-serif" font-size="16" font-weight="700" letter-spacing="3">ARTICLE 03</text>
    <text x="116" y="248" fill="#F4F8FF" font-family="Segoe UI, Arial, sans-serif" font-size="48" font-weight="800">Arrival at</text>
    <text x="116" y="308" fill="url(#accent)" font-family="Segoe UI, Arial, sans-serif" font-size="48" font-weight="800">Faisalabad</text>
    <text x="116" y="384" fill="#A7B8D7" font-family="Segoe UI, Arial, sans-serif" font-size="22">Campus impressions, maps, and hostel life</text>
    <rect x="116" y="446" width="290" height="2" fill="rgba(255,255,255,0.12)"/>
    <circle cx="136" cy="492" r="8" fill="#FFD166"/>
    <text x="160" y="500" fill="#DCE8FF" font-family="Segoe UI, Arial, sans-serif" font-size="18">Computer engineering journey</text>
    <circle cx="136" cy="538" r="8" fill="#69D2E7"/>
    <text x="160" y="546" fill="#DCE8FF" font-family="Segoe UI, Arial, sans-serif" font-size="18">Curiosity, persistence, and growth</text>
  </g>

  <g transform="translate(548 118)">
  <rect x="0" y="0" width="578" height="486" rx="40" fill="rgba(255,255,255,0.04)" stroke="rgba(255,255,255,0.14)"/>
  <path d="M90 420L192 330L286 402L360 294L500 420" stroke="url(#accentSoft)" stroke-width="12" stroke-linecap="round" stroke-linejoin="round"/>
  <circle cx="90" cy="420" r="14" fill="#FFD166"/>
  <circle cx="286" cy="402" r="14" fill="#69D2E7"/>
  <circle cx="500" cy="420" r="18" fill="#89F0C7"/>
  <rect x="128" y="174" width="250" height="188" rx="28" fill="rgba(8,17,31,0.50)" stroke="rgba(255,255,255,0.10)"/>
  <path d="M160 362V232L252 176L344 232V362" fill="rgba(255,255,255,0.05)" stroke="url(#accent)" stroke-width="2"/>
  <path d="M220 362V276H286V362" fill="rgba(255,255,255,0.08)"/>
  <path d="M184 252H212M294 252H322M184 286H212M294 286H322" stroke="#EAF4FF" stroke-width="12" stroke-linecap="round" opacity="0.72"/>
  <path d="M454 128C490 128 520 158 520 194C520 252 454 312 454 312C454 312 388 252 388 194C388 158 418 128 454 128Z" fill="url(#accent)"/>
  <circle cx="454" cy="194" r="26" fill="#07101C" opacity="0.72"/>
  <rect x="404" y="374" width="126" height="104" rx="24" fill="rgba(255,255,255,0.08)"/>
  <path d="M432 404H502M432 436H486" stroke="#EAF4FF" stroke-width="14" stroke-linecap="round" opacity="0.82"/>
</g>
</svg>
