<svg xmlns="http://www.w3.org/2000/svg" width="1200" height="720" viewBox="0 0 1200 720" fill="none" role="img" aria-labelledby="title desc">
  <title>ARTICLE 13</title>
  <desc>Printing, websites, and student entrepreneurship</desc>
  <defs>
    <linearGradient id="bg" x1="0" y1="0" x2="1200" y2="720" gradientUnits="userSpaceOnUse">
      <stop offset="0" stop-color="#07101C"/>
      <stop offset="0.55" stop-color="#0D1A2F"/>
      <stop offset="1" stop-color="#101E36"/>
    </linearGradient>
    <linearGradient id="accent" x1="240" y1="120" x2="1040" y2="620" gradientUnits="userSpaceOnUse">
      <stop offset="0" stop-color="#FFD166"/>
      <stop offset="1" stop-color="#89F0C7"/>
    </linearGradient>
    <linearGradient id="accentSoft" x1="420" y1="180" x2="980" y2="580" gradientUnits="userSpaceOnUse">
      <stop offset="0" stop-color="#89F0C7" stop-opacity="0.95"/>
      <stop offset="1" stop-color="#69D2E7" stop-opacity="0.88"/>
    </linearGradient>
    <radialGradient id="glowA" cx="0" cy="0" r="1" gradientUnits="userSpaceOnUse" gradientTransform="translate(940 170) rotate(90) scale(260)">
      <stop stop-color="#FFD166" stop-opacity="0.26"/>
      <stop offset="1" stop-color="#FFD166" stop-opacity="0"/>
    </radialGradient>
    <radialGradient id="glowB" cx="0" cy="0" r="1" gradientUnits="userSpaceOnUse" gradientTransform="translate(760 540) rotate(90) scale(300)">
      <stop stop-color="#69D2E7" stop-opacity="0.18"/>
      <stop offset="1" stop-color="#69D2E7" stop-opacity="0"/>
    </radialGradient>
    <pattern id="grid" width="42" height="42" patternUnits="userSpaceOnUse">
      <path d="M42 0H0V42" stroke="rgba(255,255,255,0.06)" stroke-width="1"/>
    </pattern>
    <filter id="shadow" x="-20%" y="-20%" width="140%" height="140%">
      <feDropShadow dx="0" dy="20" stdDeviation="20" flood-color="#000000" flood-opacity="0.28"/>
    </filter>
  </defs>

  <rect width="1200" height="720" rx="42" fill="url(#bg)"/>
  <rect width="1200" height="720" rx="42" fill="url(#grid)" opacity="0.32"/>
  <circle cx="940" cy="170" r="260" fill="url(#glowA)"/>
  <circle cx="760" cy="540" r="300" fill="url(#glowB)"/>
  <path d="M0 590C200 520 310 650 500 620C675 592 715 455 873 448C1001 442 1096 505 1200 454V720H0V590Z" fill="rgba(255,255,255,0.04)"/>

  <g filter="url(#shadow)">
    <rect x="84" y="94" width="396" height="532" rx="34" fill="rgba(8,17,31,0.56)" stroke="rgba(255,255,255,0.12)"/>
    <rect x="116" y="126" width="156" height="36" rx="18" fill="rgba(255,255,255,0.08)"/>
    <text x="144" y="150" fill="#EAF3FF" font-family="Segoe UI, Arial, sans-serif" font-size="16" font-weight="700" letter-spacing="3">ARTICLE 13</text>
    <text x="116" y="248" fill="#F4F8FF" font-family="Segoe UI, Arial, sans-serif" font-size="48" font-weight="800">A Creative</text>
    <text x="116" y="308" fill="url(#accent)" font-family="Segoe UI, Arial, sans-serif" font-size="48" font-weight="800">Business Idea</text>
    <text x="116" y="384" fill="#A7B8D7" font-family="Segoe UI, Arial, sans-serif" font-size="22">Printing, websites, and student entrepreneurship</text>
    <rect x="116" y="446" width="290" height="2" fill="rgba(255,255,255,0.12)"/>
    <circle cx="136" cy="492" r="8" fill="#FFD166"/>
    <text x="160" y="500" fill="#DCE8FF" font-family="Segoe UI, Arial, sans-serif" font-size="18">Computer engineering journey</text>
    <circle cx="136" cy="538" r="8" fill="#89F0C7"/>
    <text x="160" y="546" fill="#DCE8FF" font-family="Segoe UI, Arial, sans-serif" font-size="18">Curiosity, persistence, and growth</text>
  </g>

  <g transform="translate(548 118)">
  <rect x="0" y="0" width="578" height="486" rx="40" fill="rgba(255,255,255,0.04)" stroke="rgba(255,255,255,0.14)"/>
  <rect x="88" y="228" width="210" height="154" rx="28" fill="rgba(8,17,31,0.50)" stroke="url(#accent)" stroke-width="2"/>
  <rect x="116" y="170" width="154" height="92" rx="18" fill="rgba(255,255,255,0.08)"/>
  <path d="M130 204H256M130 232H218" stroke="#EAF4FF" stroke-width="14" stroke-linecap="round" opacity="0.82"/>
  <rect x="138" y="264" width="110" height="56" rx="12" fill="rgba(255,255,255,0.08)"/>
  <path d="M168 320V356H228V320" stroke="#EAF4FF" stroke-width="10" stroke-linecap="round" stroke-linejoin="round" opacity="0.78"/>
  <rect x="350" y="126" width="164" height="242" rx="28" fill="rgba(255,255,255,0.08)"/>
  <path d="M382 180H482M382 226H470M382 272H438" stroke="#EAF4FF" stroke-width="16" stroke-linecap="round" opacity="0.82"/>
  <circle cx="438" cy="434" r="48" fill="rgba(255,255,255,0.06)" stroke="rgba(255,255,255,0.10)"/>
  <path d="M438 404V464M416 424C416 412 426 402 438 402C450 402 460 412 460 424C460 436 450 446 438 446C426 446 416 456 416 468C416 480 426 490 438 490C450 490 460 480 460 468" stroke="#FFD166" stroke-width="10" stroke-linecap="round"/>
</g>
</svg>
