<svg width="680" height="360" viewBox="0 0 680 360" fill="none" xmlns="http://www.w3.org/2000/svg">
  <defs>
    <linearGradient id="bg" x1="80" y1="40" x2="600" y2="300" gradientUnits="userSpaceOnUse">
      <stop stop-color="#69D2E7" stop-opacity="0.26"/>
      <stop offset="1" stop-color="#FFD166" stop-opacity="0.2"/>
    </linearGradient>
    <linearGradient id="line" x1="120" y1="100" x2="540" y2="240" gradientUnits="userSpaceOnUse">
      <stop stop-color="#89F0C7"/>
      <stop offset="1" stop-color="#69D2E7"/>
    </linearGradient>
  </defs>
  <rect x="24" y="24" width="632" height="312" rx="28" fill="url(#bg)" stroke="#FFFFFF" stroke-opacity="0.18"/>
  <path d="M116 228L214 164L306 202L396 126L482 176L566 118" stroke="url(#line)" stroke-width="5" stroke-linecap="round"/>
  <path d="M116 120L204 86L294 128L390 92L470 124L566 224" stroke="#FFD166" stroke-opacity="0.72" stroke-width="4" stroke-linecap="round"/>
  <path d="M160 272L238 236L332 274L430 226L528 266" stroke="#69D2E7" stroke-opacity="0.72" stroke-width="4" stroke-linecap="round"/>
  <circle cx="116" cy="228" r="12" fill="#08111F" stroke="#89F0C7" stroke-width="4"/>
  <circle cx="214" cy="164" r="12" fill="#08111F" stroke="#69D2E7" stroke-width="4"/>
  <circle cx="306" cy="202" r="12" fill="#08111F" stroke="#FFD166" stroke-width="4"/>
  <circle cx="396" cy="126" r="12" fill="#08111F" stroke="#89F0C7" stroke-width="4"/>
  <circle cx="482" cy="176" r="12" fill="#08111F" stroke="#69D2E7" stroke-width="4"/>
  <circle cx="566" cy="118" r="12" fill="#08111F" stroke="#FFD166" stroke-width="4"/>
  <circle cx="116" cy="120" r="10" fill="#08111F" stroke="#FFD166" stroke-width="4"/>
  <circle cx="204" cy="86" r="10" fill="#08111F" stroke="#69D2E7" stroke-width="4"/>
  <circle cx="294" cy="128" r="10" fill="#08111F" stroke="#89F0C7" stroke-width="4"/>
  <circle cx="390" cy="92" r="10" fill="#08111F" stroke="#FFD166" stroke-width="4"/>
  <circle cx="470" cy="124" r="10" fill="#08111F" stroke="#69D2E7" stroke-width="4"/>
  <circle cx="566" cy="224" r="10" fill="#08111F" stroke="#89F0C7" stroke-width="4"/>
  <circle cx="160" cy="272" r="9" fill="#08111F" stroke="#69D2E7" stroke-width="4"/>
  <circle cx="238" cy="236" r="9" fill="#08111F" stroke="#89F0C7" stroke-width="4"/>
  <circle cx="332" cy="274" r="9" fill="#08111F" stroke="#FFD166" stroke-width="4"/>
  <circle cx="430" cy="226" r="9" fill="#08111F" stroke="#69D2E7" stroke-width="4"/>
  <circle cx="528" cy="266" r="9" fill="#08111F" stroke="#89F0C7" stroke-width="4"/>
</svg>
